<svg class="gbd" viewBox="0 0 880 372" role="img" aria-label="A single-window lookup on the numpy point index: rows are sorted by start with a running maximum of their ends; lo is the first row whose running max passes the query start, hi the first start at or past the query end, and only rows lo:hi are tested. Other interval backends answer the same window with their own index and are normalised to the same rows." xmlns="http://www.w3.org/2000/svg">
<rect class="bx hl" x="426.6" y="18" width="54.6" height="112" rx="4"></rect>
<text class="t" x="453.9" y="34" text-anchor="middle">query</text>
<text class="ms" x="453.9" y="48" text-anchor="middle">[qs, qe)</text>
<rect class="iv fl" x="91.2" y="60" width="70.2" height="12" rx="2"><title>[40, 130)</title></rect>
<rect class="iv fl" x="130.2" y="104" width="226.2" height="12" rx="2"><title>[90, 380)</title></rect>
<rect class="iv fl" x="177" y="60" width="46.8" height="12" rx="2"><title>[150, 210)</title></rect>
<rect class="iv fl" x="239.4" y="60" width="54.6" height="12" rx="2"><title>[230, 300)</title></rect>
<rect class="iv fl" x="294" y="82" width="93.6" height="12" rx="2"><title>[300, 420)</title></rect>
<rect class="iv fl" x="340.8" y="60" width="85.8" height="12" rx="2"><title>[360, 470)</title></rect>
<rect class="iv fg" x="395.4" y="82" width="70.2" height="12" rx="2"><title>[430, 520)</title></rect>
<rect class="iv fm" x="403.2" y="104" width="15.6" height="12" rx="2"><title>[440, 460)</title></rect>
<rect class="iv fg" x="450" y="60" width="46.8" height="12" rx="2"><title>[500, 560)</title></rect>
<rect class="iv fl" x="520.2" y="82" width="78" height="12" rx="2"><title>[590, 690)</title></rect>
<rect class="iv fl" x="567" y="60" width="85.8" height="12" rx="2"><title>[650, 760)</title></rect>
<rect class="iv fl" x="621.6" y="82" width="62.4" height="12" rx="2"><title>[720, 800)</title></rect>
<rect class="iv fl" x="699.6" y="60" width="62.4" height="12" rx="2"><title>[820, 900)</title></rect>
<rect class="iv fg" x="536" y="25" width="18" height="10" rx="2"></rect>
<text class="s" x="560" y="34">overlaps the query</text>
<rect class="iv fm" x="666" y="25" width="18" height="10" rx="2"></rect>
<text class="s" x="690" y="34">tested, no overlap</text>
<rect class="iv fl" x="794" y="25" width="18" height="10" rx="2"></rect>
<text class="s" x="818" y="34">skipped</text>
<polyline class="ln faint" points="60,158 840,158"/>
<text class="s" x="60" y="148">rows sorted by start</text>
<circle class="dot muted" cx="91.2" cy="158" r="4.5"/>
<circle class="dot muted" cx="130.2" cy="158" r="4.5"/>
<circle class="dot muted" cx="177" cy="158" r="4.5"/>
<circle class="dot muted" cx="239.4" cy="158" r="4.5"/>
<circle class="dot muted" cx="294" cy="158" r="4.5"/>
<circle class="dot muted" cx="340.8" cy="158" r="4.5"/>
<circle class="dot navy" cx="395.4" cy="158" r="4.5"/>
<circle class="dot navy" cx="403.2" cy="158" r="4.5"/>
<circle class="dot navy" cx="450" cy="158" r="4.5"/>
<circle class="dot muted" cx="520.2" cy="158" r="4.5"/>
<circle class="dot muted" cx="567" cy="158" r="4.5"/>
<circle class="dot muted" cx="621.6" cy="158" r="4.5"/>
<circle class="dot muted" cx="699.6" cy="158" r="4.5"/>
<polyline class="ln faint" points="60,206 840,206"/>
<text class="s" x="60" y="196">running max of the ends, in that order</text>
<circle class="dot muted" cx="91.2" cy="206" r="4.5"/>
<circle class="dot muted" cx="130.2" cy="206" r="4.5"/>
<circle class="dot muted" cx="177" cy="206" r="4.5"/>
<circle class="dot muted" cx="239.4" cy="206" r="4.5"/>
<circle class="dot muted" cx="294" cy="206" r="4.5"/>
<circle class="dot muted" cx="340.8" cy="206" r="4.5"/>
<circle class="dot navy" cx="395.4" cy="206" r="4.5"/>
<text class="ms" x="395.4" y="224" text-anchor="middle">run_max = 520 &gt; qs</text>
<circle class="dot muted" cx="403.2" cy="206" r="4.5"/>
<circle class="dot muted" cx="450" cy="206" r="4.5"/>
<circle class="dot muted" cx="520.2" cy="206" r="4.5"/>
<circle class="dot muted" cx="567" cy="206" r="4.5"/>
<circle class="dot muted" cx="621.6" cy="206" r="4.5"/>
<circle class="dot muted" cx="699.6" cy="206" r="4.5"/>
<polyline class="ln navy" points="395.4,196 395.4,172"/>
<polygon class="hd navy" points="395.4,168.0 398.7,174.2 392.1,174.2"/>
<text class="m" x="387.4" y="186" text-anchor="end">lo = searchsorted(run_max, qs, &#x27;right&#x27;)</text>
<polyline class="ln navy" points="481.2,198 481.2,172"/>
<polygon class="hd navy" points="481.2,168.0 484.5,174.2 477.9,174.2"/>
<text class="m" x="489.2" y="194">hi = searchsorted(starts, qe, &#x27;left&#x27;)</text>
<polyline class="ln navy" points="395.4,234 395.4,242 520.2,242 520.2,234"/>
<text class="lbl" x="457.8" y="258" text-anchor="middle">rows lo:hi are tested: keep end &gt; qs, return their row numbers, sorted</text>
<text class="cap" x="20" y="290">SAME WINDOW, OTHER ENGINES</text>
<rect class="bx green" x="20" y="300" width="212" height="44" rx="8"></rect>
<text class="tm" x="126" y="319" text-anchor="middle">genomeblocks</text>
<text class="s" x="126" y="335" text-anchor="middle">PointIndex, numpy (default)</text>
<rect class="bx" x="246" y="300" width="212" height="44" rx="8"></rect>
<text class="tm" x="352" y="319" text-anchor="middle">cgranges · ncls</text>
<text class="s" x="352" y="335" text-anchor="middle">one tree per Loci, cached on it</text>
<rect class="bx" x="472" y="300" width="212" height="44" rx="8"></rect>
<text class="tm" x="578" y="319" text-anchor="middle">bioframe · pyranges · bedtools</text>
<text class="s" x="578" y="335" text-anchor="middle">overlap_pairs of a 1-row Loci</text>
<polyline class="ln" points="700,322 726,322"/>
<polygon class="hd" points="730.0,322.0 723.8,325.3 723.8,318.7"/>
<rect class="bx green" x="732" y="300" width="128" height="44" rx="8"></rect>
<text class="t" x="796" y="319" text-anchor="middle">same rows</text>
<text class="s" x="796" y="335" text-anchor="middle">half-open · sorted</text>
</svg>
