<svg class="gbd" viewBox="0 0 880 290" role="img" aria-label="The windows are joined and striped once; each motif is scanned over the whole block in one call, and hits are mapped back to their window, dropping any that cross a boundary." xmlns="http://www.w3.org/2000/svg">
<text class="cap" x="20" y="24">WINDOWS · centre ± r</text>
<rect class="iv fnl" x="20" y="34" width="120" height="18" rx="3"></rect>
<text class="ms" x="80" y="47" text-anchor="middle">w0</text>
<rect class="iv fnl" x="150" y="34" width="120" height="18" rx="3"></rect>
<text class="ms" x="210" y="47" text-anchor="middle">w1</text>
<rect class="iv fnl" x="280" y="34" width="120" height="18" rx="3"></rect>
<text class="ms" x="340" y="47" text-anchor="middle">w2</text>
<rect class="iv fnl" x="410" y="34" width="120" height="18" rx="3"></rect>
<text class="ms" x="470" y="47" text-anchor="middle">w3</text>
<rect class="iv fnl" x="540" y="34" width="120" height="18" rx="3"></rect>
<text class="ms" x="600" y="47" text-anchor="middle">w4</text>
<polyline class="ln" points="320,58 320,82"/>
<polygon class="hd" points="320.0,86.0 316.7,79.8 323.3,79.8"/>
<text class="lbl" x="328" y="76">join, stripe once</text>
<text class="cap" x="20" y="100">ONE STRIPED BLOCK</text>
<text class="s" x="152" y="100">· hits of motif j from one engine call (lightmotif · MOODS · Biopython)</text>
<rect class="iv fnl" x="20" y="128" width="120" height="22" rx="0"></rect>
<text class="ms" x="20" y="166" text-anchor="middle">0</text>
<rect class="iv fl" x="140" y="128" width="120" height="22" rx="0"></rect>
<text class="ms" x="140" y="166" text-anchor="middle">2r</text>
<rect class="iv fnl" x="260" y="128" width="120" height="22" rx="0"></rect>
<text class="ms" x="260" y="166" text-anchor="middle">4r</text>
<rect class="iv fl" x="380" y="128" width="120" height="22" rx="0"></rect>
<text class="ms" x="380" y="166" text-anchor="middle">6r</text>
<rect class="iv fnl" x="500" y="128" width="120" height="22" rx="0"></rect>
<text class="ms" x="500" y="166" text-anchor="middle">8r</text>
<text class="ms" x="620" y="166" text-anchor="middle">10r</text>
<rect class="iv fg" x="64" y="114" width="12" height="8" rx="2"></rect>
<rect class="iv fg" x="106" y="114" width="12" height="8" rx="2"></rect>
<rect class="iv fg" x="280" y="114" width="12" height="8" rx="2"></rect>
<rect class="iv fg" x="318" y="114" width="12" height="8" rx="2"></rect>
<rect class="iv fg" x="348" y="114" width="12" height="8" rx="2"></rect>
<rect class="iv fg" x="428" y="114" width="12" height="8" rx="2"></rect>
<rect class="iv fw" x="494" y="114" width="18" height="8" rx="2"></rect>
<text class="s" x="490" y="108">crosses w3 | w4: dropped</text>
<rect class="iv fg" x="578" y="114" width="12" height="8" rx="2"></rect>
<polyline class="ln" points="320,176 320,198"/>
<polygon class="hd" points="320.0,202.0 316.7,195.8 323.3,195.8"/>
<text class="lbl" x="328" y="194">window = searchsorted(offsets, pos) · bincount</text>
<rect class="bx green" x="50" y="210" width="60" height="30" rx="6"></rect>
<text class="t" x="80" y="230" text-anchor="middle">2</text>
<rect class="bx" x="170" y="210" width="60" height="30" rx="6"></rect>
<text class="t" x="200" y="230" text-anchor="middle">0</text>
<rect class="bx green" x="290" y="210" width="60" height="30" rx="6"></rect>
<text class="t" x="320" y="230" text-anchor="middle">3</text>
<rect class="bx green" x="410" y="210" width="60" height="30" rx="6"></rect>
<text class="t" x="440" y="230" text-anchor="middle">1</text>
<rect class="bx green" x="530" y="210" width="60" height="30" rx="6"></rect>
<text class="t" x="560" y="230" text-anchor="middle">1</text>
<text class="s" x="20" y="262">= column j of the hit matrix (÷ motif width if norm=True)</text>
<text class="cap" x="690" y="40">LOCI × MOTIFS</text>
<rect class="chip" x="690" y="60" width="19" height="23" rx="3"></rect>
<rect class="chip" x="712" y="60" width="19" height="23" rx="3"></rect>
<rect class="chip" x="734" y="60" width="19" height="23" rx="3"></rect>
<rect class="iv fg" x="756" y="60" width="19" height="23" rx="3"></rect>
<rect class="chip" x="778" y="60" width="19" height="23" rx="3"></rect>
<rect class="chip" x="800" y="60" width="19" height="23" rx="3"></rect>
<rect class="chip" x="822" y="60" width="19" height="23" rx="3"></rect>
<rect class="chip" x="690" y="86" width="19" height="23" rx="3"></rect>
<rect class="chip" x="712" y="86" width="19" height="23" rx="3"></rect>
<rect class="chip" x="734" y="86" width="19" height="23" rx="3"></rect>
<rect class="iv fg" x="756" y="86" width="19" height="23" rx="3"></rect>
<rect class="chip" x="778" y="86" width="19" height="23" rx="3"></rect>
<rect class="chip" x="800" y="86" width="19" height="23" rx="3"></rect>
<rect class="chip" x="822" y="86" width="19" height="23" rx="3"></rect>
<rect class="chip" x="690" y="112" width="19" height="23" rx="3"></rect>
<rect class="chip" x="712" y="112" width="19" height="23" rx="3"></rect>
<rect class="chip" x="734" y="112" width="19" height="23" rx="3"></rect>
<rect class="iv fg" x="756" y="112" width="19" height="23" rx="3"></rect>
<rect class="chip" x="778" y="112" width="19" height="23" rx="3"></rect>
<rect class="chip" x="800" y="112" width="19" height="23" rx="3"></rect>
<rect class="chip" x="822" y="112" width="19" height="23" rx="3"></rect>
<rect class="chip" x="690" y="138" width="19" height="23" rx="3"></rect>
<rect class="chip" x="712" y="138" width="19" height="23" rx="3"></rect>
<rect class="chip" x="734" y="138" width="19" height="23" rx="3"></rect>
<rect class="iv fg" x="756" y="138" width="19" height="23" rx="3"></rect>
<rect class="chip" x="778" y="138" width="19" height="23" rx="3"></rect>
<rect class="chip" x="800" y="138" width="19" height="23" rx="3"></rect>
<rect class="chip" x="822" y="138" width="19" height="23" rx="3"></rect>
<rect class="chip" x="690" y="164" width="19" height="23" rx="3"></rect>
<rect class="chip" x="712" y="164" width="19" height="23" rx="3"></rect>
<rect class="chip" x="734" y="164" width="19" height="23" rx="3"></rect>
<rect class="iv fg" x="756" y="164" width="19" height="23" rx="3"></rect>
<rect class="chip" x="778" y="164" width="19" height="23" rx="3"></rect>
<rect class="chip" x="800" y="164" width="19" height="23" rx="3"></rect>
<rect class="chip" x="822" y="164" width="19" height="23" rx="3"></rect>
<text class="m" x="765" y="206" text-anchor="middle">j</text>
<text class="s" x="690" y="238">motifs are split across</text>
<text class="s" x="690" y="252">worker processes; each</text>
<text class="s" x="690" y="266">holds one copy of the block</text>
<polyline class="ln green" points="632,225 754.021,212.411"/>
<polygon class="hd green" points="758.0,212.0 752.2,215.9 751.5,209.4"/>
</svg>
