<svg class="gbd" viewBox="0 0 880 528" role="img" aria-label="Package map: plotting modules read the domain modules, every domain module builds on Locus and Loci, and the columnar package shares Locus and hands tables to the classic API." xmlns="http://www.w3.org/2000/svg">
<text class="cap" x="88" y="40" text-anchor="end">PLOT</text>
<text class="s" x="88" y="54" text-anchor="end">matplotlib, lazy</text>
<rect class="bx" x="100" y="20" width="118" height="46" rx="8"></rect>
<text class="tm" x="159" y="40" text-anchor="middle">signal_draw</text>
<text class="s" x="159" y="56" text-anchor="middle">heatmaps · profiles</text>
<rect class="bx" x="228.4" y="20" width="246.4" height="46" rx="8"></rect>
<text class="tm" x="351.6" y="40" text-anchor="middle">browserview</text>
<text class="s" x="351.6" y="56" text-anchor="middle">IGV-like region figures</text>
<rect class="bx" x="485.2" y="20" width="118" height="46" rx="8"></rect>
<text class="tm" x="544.2" y="40" text-anchor="middle">motifs_draw</text>
<text class="s" x="544.2" y="56" text-anchor="middle">logos · dendrograms</text>
<rect class="bx" x="742" y="20" width="118" height="46" rx="8"></rect>
<text class="tm" x="801" y="40" text-anchor="middle">architecture_draw</text>
<text class="s" x="801" y="56" text-anchor="middle">network layouts</text>
<polyline class="ln" points="159,68 159,114"/>
<polygon class="hd" points="159.0,118.0 155.7,111.8 162.3,111.8"/>
<polyline class="ln" points="287.4,68 287.4,114"/>
<polygon class="hd" points="287.4,118.0 284.1,111.8 290.7,111.8"/>
<polyline class="ln" points="415.8,68 415.8,114"/>
<polygon class="hd" points="415.8,118.0 412.5,111.8 419.1,111.8"/>
<polyline class="ln" points="544.2,68 544.2,114"/>
<polygon class="hd" points="544.2,118.0 540.9,111.8 547.5,111.8"/>
<polyline class="ln" points="801,68 801,114"/>
<polygon class="hd" points="801.0,118.0 797.7,111.8 804.3,111.8"/>
<text class="lbl" x="167" y="97">reads</text>
<text class="cap" x="88" y="152" text-anchor="end">DOMAIN</text>
<text class="s" x="88" y="166" text-anchor="end">one per data type</text>
<rect class="bx green" x="100" y="120" width="118" height="76" rx="8"></rect>
<text class="t" x="159" y="146" text-anchor="middle">signal</text>
<text class="s" x="159" y="162" text-anchor="middle">bigWig → cube</text>
<text class="ms" x="159" y="184" text-anchor="middle">pybigtools</text>
<rect class="bx purple" x="228.4" y="120" width="118" height="76" rx="8"></rect>
<text class="t" x="287.4" y="146" text-anchor="middle">bedpe</text>
<text class="s" x="287.4" y="162" text-anchor="middle">loops · Hi-C pairs</text>
<text class="ms" x="287.4" y="184" text-anchor="middle">pandas</text>
<rect class="bx navy" x="356.8" y="120" width="118" height="76" rx="8"></rect>
<text class="t" x="415.8" y="146" text-anchor="middle">Genes</text>
<text class="s" x="415.8" y="162" text-anchor="middle">GTF → gene models</text>
<text class="ms" x="415.8" y="184" text-anchor="middle">pyranges</text>
<rect class="bx navy" x="485.2" y="120" width="118" height="76" rx="8"></rect>
<text class="t" x="544.2" y="146" text-anchor="middle">motifs</text>
<text class="s" x="544.2" y="162" text-anchor="middle">PWM hit counts</text>
<text class="ms" x="544.2" y="184" text-anchor="middle">lightmotif</text>
<rect class="bx navy" x="613.6" y="120" width="118" height="76" rx="8"></rect>
<text class="t" x="672.6" y="146" text-anchor="middle">Atlas</text>
<text class="s" x="672.6" y="162" text-anchor="middle">peak-set enrichment</text>
<text class="ms" x="672.6" y="184" text-anchor="middle">scipy.sparse</text>
<rect class="bx purple" x="742" y="120" width="118" height="76" rx="8"></rect>
<text class="t" x="801" y="146" text-anchor="middle">Architecture</text>
<text class="s" x="801" y="162" text-anchor="middle">contact graph</text>
<text class="ms" x="801" y="184" text-anchor="middle">graph-tool · cooler</text>
<polyline class="ln" points="159,197 159,226"/>
<polyline class="ln" points="287.4,197 287.4,226"/>
<polyline class="ln" points="415.8,197 415.8,226"/>
<polyline class="ln" points="544.2,197 544.2,226"/>
<polyline class="ln" points="672.6,197 672.6,226"/>
<polyline class="ln" points="801,197 801,226"/>
<polyline class="ln" points="159,226 801,226"/>
<polyline class="ln" points="578,226 578,258"/>
<polygon class="hd" points="578.0,262.0 574.7,255.8 581.3,255.8"/>
<text class="lbl" x="586" y="248">every module builds on Locus · Loci</text>
<text class="cap" x="88" y="300" text-anchor="end">CORE</text>
<text class="s" x="88" y="314" text-anchor="end">imported by all</text>
<rect class="bx green" x="100" y="264" width="180" height="96" rx="8"></rect>
<text class="t" x="190" y="290" text-anchor="middle">Locus</text>
<text class="s" x="190" y="306" text-anchor="middle">one interval</text>
<rect class="chip white" x="114" y="318" width="152" height="24" rx="12"></rect>
<text class="m" x="190" y="334" text-anchor="middle">chr1:100-200(+)</text>
<text class="s" x="190" y="354" text-anchor="middle">uid = the key everywhere</text>
<rect class="bx green" x="296" y="264" width="564" height="96" rx="8"></rect>
<text class="t" x="312" y="290">Loci</text>
<text class="s" x="348" y="290">a list of Locus, plus two indexes built on first use</text>
<rect class="chip white" x="312" y="300" width="146" height="24" rx="12"></rect>
<text class="m" x="385" y="316" text-anchor="middle">uids: uid → row</text>
<rect class="chip white" x="466" y="300" width="164" height="24" rx="12"></rect>
<text class="m" x="548" y="316" text-anchor="middle">cgr: interval index</text>
<text class="s" x="640" y="316">cgranges, or a pure-Python bisect index</text>
<text class="s" x="312" y="347">attached at import:</text>
<rect class="chip white" x="418" y="332" width="70" height="22" rx="11"></rect>
<text class="m" x="453" y="347" text-anchor="middle">.signal()</text>
<rect class="chip white" x="494" y="332" width="104" height="22" rx="11"></rect>
<text class="m" x="546" y="347" text-anchor="middle">.count_pairs()</text>
<rect class="chip white" x="604" y="332" width="108" height="22" rx="11"></rect>
<text class="m" x="658" y="347" text-anchor="middle">.scan_motifs()</text>
<rect class="chip white" x="718" y="332" width="76" height="22" rx="11"></rect>
<text class="m" x="756" y="347" text-anchor="middle">.enrich()</text>
<text class="cap" x="88" y="456" text-anchor="end">TABLES</text>
<text class="s" x="88" y="470" text-anchor="end">columnar, 1.1</text>
<rect class="bx page" x="100" y="420" width="760" height="94" rx="8"></rect>
<text class="tm" x="116" y="442">genomeblocks.columnar</text>
<text class="s" x="296" y="442">numpy columns that line up by row · one shared Genome · objects only on access</text>
<rect class="bx" x="116" y="454" width="114" height="46" rx="8"></rect>
<text class="t" x="173" y="474" text-anchor="middle">Genome</text>
<text class="s" x="173" y="490" text-anchor="middle">shared chrom codes</text>
<rect class="bx green" x="238.8" y="454" width="114" height="46" rx="8"></rect>
<text class="t" x="295.8" y="474" text-anchor="middle">Loci</text>
<text class="s" x="295.8" y="490" text-anchor="middle">4 numpy columns</text>
<rect class="bx navy" x="361.6" y="454" width="114" height="46" rx="8"></rect>
<text class="t" x="418.6" y="474" text-anchor="middle">Genes</text>
<text class="s" x="418.6" y="490" text-anchor="middle">3 linked tables</text>
<rect class="bx purple" x="484.4" y="454" width="114" height="46" rx="8"></rect>
<text class="t" x="541.4" y="474" text-anchor="middle">Architecture</text>
<text class="s" x="541.4" y="490" text-anchor="middle">sorted edge table</text>
<rect class="bx purple" x="607.2" y="454" width="114" height="46" rx="8"></rect>
<text class="t" x="664.2" y="474" text-anchor="middle">hichip · se</text>
<text class="s" x="664.2" y="490" text-anchor="middle">short-range → SEs</text>
<rect class="bx" x="730" y="454" width="114" height="46" rx="8"></rect>
<text class="t" x="787" y="474" text-anchor="middle">view · igv</text>
<text class="s" x="787" y="490" text-anchor="middle">one-file browsers</text>
<polyline class="ln" points="190,418 190,366"/>
<polygon class="hd" points="190.0,362.0 193.3,368.2 186.7,368.2"/>
<text class="lbl" x="198" y="395">rows are Locus objects</text>
<polyline class="ln" points="578,418 578,366"/>
<polygon class="hd" points="578.0,362.0 581.3,368.2 574.7,368.2"/>
<text class="lbl" x="586" y="395">to_legacy() · classic functions accept it</text>
</svg>
